<?xml version="1.0" encoding="UTF-8" standalone="no"?>
<!-- Created with Inkscape (http://www.inkscape.org/) -->

<svg
   xmlns:dc="http://purl.org/dc/elements/1.1/"
   xmlns:cc="http://creativecommons.org/ns#"
   xmlns:rdf="http://www.w3.org/1999/02/22-rdf-syntax-ns#"
   xmlns:svg="http://www.w3.org/2000/svg"
   xmlns="http://www.w3.org/2000/svg"
   xmlns:xlink="http://www.w3.org/1999/xlink"
   xmlns:sodipodi="http://sodipodi.sourceforge.net/DTD/sodipodi-0.dtd"
   xmlns:inkscape="http://www.inkscape.org/namespaces/inkscape"
   width="200mm"
   height="200mm"
   viewBox="0 0 200 200"
   version="1.1"
   id="svg8"
   inkscape:version="0.92.3 (2405546, 2018-03-11)"
   sodipodi:docname="flaming_f.svg">
  <defs
     id="defs2">
    <linearGradient
       inkscape:collect="always"
       id="linearGradient1012">
      <stop
         style="stop-color:#800000;stop-opacity:1;"
         offset="0"
         id="stop1008" />
      <stop
         style="stop-color:#dd0000;stop-opacity:1"
         offset="1"
         id="stop1010" />
    </linearGradient>
    <linearGradient
       inkscape:collect="always"
       xlink:href="#linearGradient1012"
       id="linearGradient1014"
       x1="-32.279167"
       y1="289.0625"
       x2="149.53731"
       y2="63.372917"
       gradientUnits="userSpaceOnUse" />
    <linearGradient
       inkscape:collect="always"
       xlink:href="#linearGradient1012"
       id="linearGradient1021"
       gradientUnits="userSpaceOnUse"
       x1="-32.279167"
       y1="289.0625"
       x2="182.61021"
       y2="49.350002" />
  </defs>
  <sodipodi:namedview
     id="base"
     pagecolor="#ffffff"
     bordercolor="#666666"
     borderopacity="1.0"
     inkscape:pageopacity="0.0"
     inkscape:pageshadow="2"
     inkscape:zoom="1.4142136"
     inkscape:cx="12.612338"
     inkscape:cy="406.80134"
     inkscape:document-units="mm"
     inkscape:current-layer="layer1"
     showgrid="false"
     inkscape:snap-page="true"
     showguides="true"
     inkscape:guide-bbox="true"
     inkscape:window-width="3840"
     inkscape:window-height="2129"
     inkscape:window-x="0"
     inkscape:window-y="0"
     inkscape:window-maximized="1">
    <sodipodi:guide
       position="144.76488,117.17262"
       orientation="1,0"
       id="guide1003"
       inkscape:locked="false" />
    <sodipodi:guide
       position="149.5373,78.710875"
       orientation="1,0"
       id="guide1005"
       inkscape:locked="false" />
  </sodipodi:namedview>
  <metadata
     id="metadata5">
    <rdf:RDF>
      <cc:Work
         rdf:about="">
        <dc:format>image/svg+xml</dc:format>
        <dc:type
           rdf:resource="http://purl.org/dc/dcmitype/StillImage" />
        <dc:title></dc:title>
      </cc:Work>
    </rdf:RDF>
  </metadata>
  <g
     inkscape:label="Layer 1"
     inkscape:groupmode="layer"
     id="layer1"
     transform="translate(0,-97)">
    <path
       style="opacity:1;fill:url(#linearGradient1021);fill-opacity:1;stroke:none;stroke-width:2.08117104;stroke-miterlimit:4;stroke-dasharray:none;stroke-opacity:1"
       d="m 162.32161,103.08542 c -3.28149,13.48641 -17.19012,23.25064 -31.93797,24.10173 -15.53354,0.88967 -31.399108,-0.49773 -45.255979,-1e-4 -18.237207,0.13942 -32.879661,13.99591 -32.88652,31.04131 0.0073,0.16071 0.01603,0.32137 0.02605,0.48196 0.08251,32.12661 -0.08734,66.94283 -0.02664,97.54713 h -0.0011 c -0.193601,14.34876 -10.882055,26.70453 -25.853573,29.88655 5.310866,3.14268 11.46668,4.81275 17.752527,4.81625 18.013744,-0.0158 32.732459,-13.44569 33.18186,-30.27644 h 0.08822 c 0.0021,-30.42713 -0.825348,-85.68551 0.01421,-91.24653 2.799835,-10.63889 12.798815,-18.25922 24.512525,-18.68125 v -0.0209 c 10.09341,0.0171 20.80097,-0.0222 30.6923,-0.007 18.34873,0 33.22329,-13.90204 33.22329,-31.05111 -0.004,-5.87487 -0.16666,-11.6282 -3.52918,-16.59184 z m -0.18473,61.63963 c -3.13112,12.86854 -16.0458,22.3445 -30.04222,23.92577 -3.53828,0.21782 -6.29069,0.0557 -10.34299,0.0731 -18.21129,0.14979 -32.925507,13.99183 -32.925507,31.0478 0.0038,5.87487 0.166833,12.13412 -0.04322,16.59185 4.924235,-11.74264 20.387937,-22.8613 35.045627,-23.97904 4.34696,-0.068 4.29246,-0.0466 8.4875,-0.0163 18.34873,0 33.2233,-13.90205 33.2233,-31.05111 -0.004,-5.87489 -0.04,-11.6282 -3.4025,-16.59185 z"
       id="path14"
       inkscape:connector-curvature="0"
       sodipodi:nodetypes="cccccccccccccccccccccccccccc" />
  </g>
</svg>
